# xmcd
#
# Track frame offsets: 
#        150
#        18517
#        32190
#        48740
#        65497
#        77750
#        105849
#        121430
#        143224
#        160656
#        178464
#
# Disc length: 2592 seconds
#
# Revision: 0
# Processed by: cddbd v1.5.2PL0 Copyright (c) Steve Scherf et al.
# Submitted via: ExactAudioCopy v0.99pb5
#
DISCID=950a1e0b
DTITLE=ДиДюЛя - Аромат
DYEAR=2010
DGENRE=Instrumental
TTITLE0=Один день в сентябре
TTITLE1=Торо-ко-ко, пэк-пэк
TTITLE2=Воздушный змей
TTITLE3=Прогулка
TTITLE4=Мерцает звук
TTITLE5=После дождя
TTITLE6=Затерянный грот
TTITLE7=Кольца времени
TTITLE8=На рассвете
TTITLE9=Прощай поверхность!
TTITLE10=Аромат
EXTD=
EXTT0=
EXTT1=
EXTT2=
EXTT3=
EXTT4=
EXTT5=
EXTT6=
EXTT7=
EXTT8=
EXTT9=
EXTT10=
PLAYORDER=
